# xmcd CD database file
#
# Track frame offsets:
#	150
#	17962
#	30110
#	50352
#	66222
#	90022
#	109565
#	132920
#	147635
#	160585
#	174110
#	191000
#	203035
#	225230
#	243030
#	257402
#	272362
#
# Disc length: 3738 seconds
#
# Revision: 21
# Processed by: cddbd v1.5.2PL0 Copyright (c) Steve Scherf et al.
# Submitted via: CDex 1.72
#
DISCID=c50e9811
DTITLE=Griffith, Nanci (USA-93-Other Voices, other Rooms-cty) - Other Voices, Other Rooms
DYEAR=1993
DGENRE=Country
TTITLE0=Across the Great Divide
TTITLE1=Woman of the Phoenix
TTITLE2=Tecumseh Valley
TTITLE3=Three Flights Up
TTITLE4=Boots of Spanish Leather
TTITLE5=Speed of the Sound of Loneliness
TTITLE6=From Clare to Here
TTITLE7=Can't Help But Wonder Where I'm Bound
TTITLE8=Do-Re-Mi
TTITLE9=This Old Town
TTITLE10=Comin' Down in the Rain
TTITLE11=Ten Degrees and Getting Colder
TTITLE12=Morning Song for Sally
TTITLE13=Night Rider's Lament
TTITLE14=Are You Tired of Me Darling
TTITLE15=Turn Around
TTITLE16=Wimoweh
EXTD=YEAR: 1993
EXTT0=
EXTT1=
EXTT2=
EXTT3=
EXTT4=
EXTT5=
EXTT6=
EXTT7=
EXTT8=
EXTT9=
EXTT10=
EXTT11=
EXTT12=
EXTT13=
EXTT14=
EXTT15=
EXTT16=
PLAYORDER=
